<svg width="1338" height="278" viewBox="0 0 1338 278" fill="none" xmlns="http://www.w3.org/2000/svg">
<path d="M563 46.3364C563 32.8958 574.374 22 588.405 22H793.595C807.626 22 819 32.8958 819 46.3364V253.664C819 267.104 807.626 278 793.595 278H588.405C574.374 278 563 267.104 563 253.664V46.3364Z" fill="url(#paint0_linear_43_17)"/>
<path d="M625.831 139.68H609.416L606.18 146.958H599.895L614.669 115.508H620.672L635.493 146.958H629.114L625.831 139.68ZM623.815 135.097L617.624 121.349L611.48 135.097H623.815Z" fill="white"/>
<path d="M663.359 122.966V155.674H657.496V144.038C655.526 146.194 652.853 147.272 649.476 147.272C647.037 147.272 644.848 146.763 642.91 145.745C641.003 144.726 639.502 143.289 638.407 141.432C637.344 139.575 636.813 137.418 636.813 134.962C636.813 132.536 637.36 130.394 638.454 128.537C639.549 126.68 641.049 125.242 642.957 124.224C644.864 123.206 647.037 122.696 649.476 122.696C651.196 122.696 652.759 122.981 654.166 123.55C655.604 124.119 656.808 124.973 657.777 126.111V122.966H663.359ZM650.133 142.465C652.29 142.465 654.072 141.776 655.479 140.398C656.886 139.021 657.59 137.208 657.59 134.962C657.59 132.716 656.886 130.903 655.479 129.526C654.072 128.148 652.29 127.459 650.133 127.459C647.975 127.459 646.193 128.148 644.786 129.526C643.41 130.903 642.722 132.716 642.722 134.962C642.722 137.208 643.41 139.021 644.786 140.398C646.193 141.776 647.975 142.465 650.133 142.465Z" fill="white"/>
<path d="M695.277 122.966V146.958H689.696V143.903C688.758 144.981 687.585 145.82 686.178 146.419C684.771 146.988 683.255 147.272 681.629 147.272C678.283 147.272 675.641 146.389 673.702 144.622C671.795 142.825 670.841 140.174 670.841 136.669V122.966H676.704V135.905C676.704 138.062 677.204 139.68 678.205 140.758C679.237 141.806 680.691 142.33 682.567 142.33C684.662 142.33 686.319 141.716 687.538 140.488C688.789 139.23 689.414 137.433 689.414 135.097V122.966H695.277Z" fill="white"/>
<path d="M712.52 122.696C716.21 122.696 719.024 123.55 720.963 125.257C722.932 126.935 723.917 129.481 723.917 132.895V146.958H718.383V144.038C717.664 145.086 716.632 145.895 715.288 146.464C713.974 147.003 712.38 147.272 710.504 147.272C708.628 147.272 706.986 146.973 705.579 146.374C704.172 145.745 703.078 144.891 702.296 143.813C701.546 142.705 701.171 141.462 701.171 140.084C701.171 137.927 701.999 136.205 703.656 134.917C705.345 133.599 707.987 132.94 711.582 132.94H718.055V132.581C718.055 130.903 717.523 129.615 716.46 128.717C715.428 127.818 713.881 127.369 711.817 127.369C710.41 127.369 709.019 127.579 707.643 127.998C706.298 128.417 705.157 129.001 704.219 129.75L701.921 125.662C703.234 124.703 704.813 123.969 706.658 123.46C708.503 122.951 710.457 122.696 712.52 122.696ZM711.723 143.184C713.193 143.184 714.49 142.869 715.616 142.24C716.773 141.581 717.586 140.653 718.055 139.455V136.669H712.005C708.628 136.669 706.939 137.733 706.939 139.859C706.939 140.878 707.361 141.686 708.206 142.285C709.05 142.884 710.222 143.184 711.723 143.184Z" fill="white"/>
<path d="M737.116 147.407C735.021 147.407 733.083 147.018 731.301 146.239C729.55 145.43 728.111 144.307 726.986 142.869L730.456 138.871C732.27 141.267 734.443 142.465 736.976 142.465C740.384 142.465 742.088 140.533 742.088 136.669V120.405H730.409V115.508H748.185V136.355C748.185 140.039 747.247 142.81 745.371 144.667C743.495 146.494 740.743 147.407 737.116 147.407Z" fill="white"/>
<path d="M766.914 147.407C764.382 147.407 761.927 147.063 759.551 146.374C757.206 145.685 755.346 144.771 753.97 143.633L756.08 139.095C757.425 140.114 759.066 140.952 761.005 141.611C762.975 142.24 764.945 142.555 766.914 142.555C769.353 142.555 771.167 142.181 772.355 141.432C773.574 140.683 774.184 139.694 774.184 138.466C774.184 137.568 773.84 136.834 773.152 136.265C772.496 135.666 771.651 135.202 770.62 134.872C769.588 134.543 768.181 134.168 766.398 133.749C763.897 133.18 761.865 132.611 760.301 132.042C758.769 131.473 757.44 130.589 756.315 129.391C755.22 128.163 754.673 126.515 754.673 124.449C754.673 122.711 755.158 121.139 756.127 119.731C757.128 118.293 758.613 117.155 760.583 116.317C762.584 115.478 765.023 115.059 767.899 115.059C769.9 115.059 771.87 115.298 773.809 115.777C775.747 116.257 777.42 116.946 778.827 117.844L776.904 122.382C775.466 121.573 773.965 120.959 772.402 120.54C770.838 120.121 769.322 119.911 767.852 119.911C765.445 119.911 763.647 120.3 762.459 121.079C761.302 121.858 760.723 122.891 760.723 124.179C760.723 125.078 761.052 125.812 761.708 126.381C762.396 126.95 763.256 127.399 764.288 127.728C765.32 128.058 766.727 128.432 768.509 128.852C770.948 129.391 772.949 129.96 774.512 130.559C776.076 131.128 777.405 132.012 778.499 133.21C779.624 134.408 780.187 136.025 780.187 138.062C780.187 139.799 779.687 141.372 778.686 142.78C777.717 144.187 776.232 145.311 774.231 146.149C772.23 146.988 769.791 147.407 766.914 147.407Z" fill="white"/>
<path d="M608.22 176.555C607.438 176.555 606.715 176.393 606.051 176.068C605.387 175.744 604.846 175.282 604.429 174.683L605.289 173.747C606.044 174.82 607.028 175.357 608.24 175.357C609.933 175.357 610.78 174.396 610.78 172.474V164.536H605.777V163.338H612.207V172.418C612.207 173.79 611.868 174.826 611.191 175.525C610.526 176.212 609.536 176.555 608.22 176.555Z" fill="white"/>
<path d="M619.847 166.521C621.189 166.521 622.218 166.845 622.935 167.494C623.651 168.131 624.01 169.079 624.01 170.34V176.442H622.681V174.907C622.368 175.419 621.906 175.818 621.293 176.105C620.694 176.392 619.977 176.536 619.144 176.536C617.997 176.536 617.085 176.274 616.408 175.75C615.73 175.226 615.392 174.533 615.392 173.672C615.392 172.836 615.704 172.162 616.33 171.65C616.968 171.138 617.978 170.882 619.359 170.882H622.622V170.283C622.622 169.435 622.375 168.792 621.88 168.355C621.384 167.906 620.661 167.681 619.71 167.681C619.059 167.681 618.434 167.787 617.834 168C617.235 168.199 616.72 168.48 616.291 168.842L615.665 167.85C616.186 167.425 616.812 167.101 617.541 166.876C618.271 166.639 619.039 166.521 619.847 166.521ZM619.359 175.488C620.14 175.488 620.811 175.319 621.371 174.982C621.932 174.633 622.349 174.134 622.622 173.485V171.875H619.398C617.639 171.875 616.76 172.461 616.76 173.634C616.76 174.208 616.988 174.664 617.444 175.001C617.899 175.325 618.538 175.488 619.359 175.488Z" fill="white"/>
<path d="M636.225 166.596L631.652 176.442H630.225L625.672 166.596H627.118L630.968 174.982L634.857 166.596H636.225Z" fill="white"/>
<path d="M641.469 166.521C642.811 166.521 643.84 166.845 644.557 167.494C645.273 168.131 645.632 169.079 645.632 170.34V176.442H644.303V174.907C643.99 175.419 643.528 175.818 642.915 176.105C642.316 176.392 641.6 176.536 640.766 176.536C639.619 176.536 638.707 176.274 638.03 175.75C637.352 175.226 637.014 174.533 637.014 173.672C637.014 172.836 637.326 172.162 637.952 171.65C638.59 171.138 639.6 170.882 640.981 170.882H644.244V170.283C644.244 169.435 643.997 168.792 643.502 168.355C643.007 167.906 642.284 167.681 641.333 167.681C640.681 167.681 640.056 167.787 639.456 168C638.857 168.199 638.343 168.48 637.913 168.842L637.287 167.85C637.808 167.425 638.434 167.101 639.163 166.876C639.893 166.639 640.662 166.521 641.469 166.521ZM640.981 175.488C641.762 175.488 642.433 175.319 642.994 174.982C643.554 174.633 643.971 174.134 644.244 173.485V171.875H641.02C639.261 171.875 638.382 172.461 638.382 173.634C638.382 174.208 638.61 174.664 639.066 175.001C639.522 175.325 640.16 175.488 640.981 175.488Z" fill="white"/>
<path d="M653.465 176.555C652.449 176.555 651.472 176.399 650.534 176.087C649.609 175.775 648.892 175.363 648.384 174.851L648.951 173.784C649.446 174.258 650.104 174.645 650.925 174.945C651.745 175.232 652.592 175.375 653.465 175.375C654.69 175.375 655.608 175.163 656.22 174.739C656.833 174.302 657.139 173.74 657.139 173.054C657.139 172.53 656.97 172.112 656.631 171.8C656.305 171.488 655.901 171.251 655.419 171.088C654.937 170.914 654.266 170.726 653.406 170.527C652.377 170.277 651.556 170.04 650.944 169.815C650.332 169.578 649.804 169.223 649.361 168.748C648.931 168.274 648.716 167.631 648.716 166.82C648.716 166.159 648.899 165.56 649.264 165.023C649.628 164.474 650.188 164.037 650.944 163.713C651.7 163.388 652.638 163.226 653.758 163.226C654.54 163.226 655.302 163.332 656.045 163.544C656.8 163.744 657.452 164.025 657.999 164.387L657.51 165.491C656.937 165.129 656.325 164.861 655.673 164.686C655.022 164.499 654.384 164.405 653.758 164.405C652.56 164.405 651.654 164.63 651.042 165.079C650.443 165.516 650.143 166.084 650.143 166.783C650.143 167.307 650.306 167.731 650.631 168.056C650.97 168.368 651.387 168.611 651.882 168.786C652.39 168.948 653.068 169.129 653.915 169.329C654.918 169.566 655.725 169.803 656.338 170.04C656.963 170.265 657.491 170.614 657.921 171.088C658.351 171.55 658.565 172.18 658.565 172.979C658.565 173.641 658.377 174.246 657.999 174.795C657.634 175.332 657.067 175.762 656.299 176.087C655.53 176.399 654.585 176.555 653.465 176.555Z" fill="white"/>
<path d="M665.683 176.536C664.667 176.536 663.755 176.324 662.947 175.9C662.153 175.475 661.527 174.882 661.071 174.121C660.615 173.347 660.387 172.48 660.387 171.519C660.387 170.558 660.615 169.697 661.071 168.936C661.527 168.174 662.153 167.581 662.947 167.157C663.755 166.733 664.667 166.521 665.683 166.521C666.569 166.521 667.357 166.689 668.048 167.026C668.751 167.351 669.305 167.831 669.709 168.468L668.673 169.142C668.335 168.655 667.905 168.293 667.384 168.056C666.862 167.806 666.296 167.681 665.683 167.681C664.941 167.681 664.27 167.844 663.671 168.168C663.084 168.48 662.622 168.929 662.283 169.516C661.957 170.102 661.795 170.77 661.795 171.519C661.795 172.28 661.957 172.954 662.283 173.541C662.622 174.115 663.084 174.564 663.671 174.889C664.27 175.201 664.941 175.357 665.683 175.357C666.296 175.357 666.862 175.238 667.384 175.001C667.905 174.764 668.335 174.402 668.673 173.915L669.709 174.589C669.305 175.226 668.751 175.712 668.048 176.049C667.344 176.374 666.556 176.536 665.683 176.536Z" fill="white"/>
<path d="M673.764 168.524C674.089 167.862 674.571 167.363 675.21 167.026C675.861 166.689 676.662 166.521 677.613 166.521V167.812L677.281 167.794C676.2 167.794 675.353 168.112 674.741 168.748C674.128 169.385 673.822 170.277 673.822 171.425V176.442H672.435V166.596H673.764V168.524Z" fill="white"/>
<path d="M680.125 166.596H681.513V176.442H680.125V166.596ZM680.829 164.443C680.542 164.443 680.301 164.349 680.106 164.162C679.911 163.975 679.813 163.75 679.813 163.488C679.813 163.238 679.911 163.02 680.106 162.833C680.301 162.646 680.542 162.552 680.829 162.552C681.116 162.552 681.357 162.646 681.552 162.833C681.747 163.007 681.845 163.22 681.845 163.469C681.845 163.744 681.747 163.975 681.552 164.162C681.357 164.349 681.116 164.443 680.829 164.443Z" fill="white"/>
<path d="M690.669 166.521C691.634 166.521 692.506 166.733 693.288 167.157C694.07 167.569 694.682 168.156 695.125 168.917C695.568 169.678 695.789 170.546 695.789 171.519C695.789 172.505 695.568 173.379 695.125 174.14C694.682 174.901 694.07 175.494 693.288 175.918C692.519 176.33 691.647 176.536 690.669 176.536C689.836 176.536 689.08 176.374 688.403 176.049C687.738 175.712 687.191 175.226 686.761 174.589V180.074H685.374V166.596H686.702V168.542C687.119 167.893 687.667 167.394 688.344 167.045C689.034 166.695 689.81 166.521 690.669 166.521ZM690.572 175.357C691.288 175.357 691.94 175.201 692.526 174.889C693.112 174.564 693.568 174.109 693.894 173.522C694.233 172.935 694.402 172.268 694.402 171.519C694.402 170.77 694.233 170.109 693.894 169.535C693.568 168.948 693.112 168.493 692.526 168.168C691.94 167.844 691.288 167.681 690.572 167.681C689.842 167.681 689.184 167.844 688.598 168.168C688.025 168.493 687.569 168.948 687.23 169.535C686.904 170.109 686.742 170.77 686.742 171.519C686.742 172.268 686.904 172.935 687.23 173.522C687.569 174.109 688.025 174.564 688.598 174.889C689.184 175.201 689.842 175.357 690.572 175.357Z" fill="white"/>
<path d="M704.031 175.843C703.77 176.068 703.445 176.243 703.054 176.368C702.676 176.48 702.279 176.536 701.862 176.536C700.898 176.536 700.155 176.286 699.634 175.787C699.113 175.288 698.852 174.583 698.852 173.672V167.719H697.015V166.596H698.852V164.443H700.24V166.596H703.367V167.719H700.24V173.597C700.24 174.184 700.39 174.633 700.689 174.945C701.002 175.244 701.445 175.394 702.018 175.394C702.305 175.394 702.578 175.35 702.839 175.263C703.113 175.176 703.347 175.051 703.542 174.889L704.031 175.843Z" fill="white"/>
<path d="M711.964 163.338H713.411V175.244H721.071V176.442H711.964V163.338Z" fill="white"/>
<path d="M723.179 166.596H724.566V176.442H723.179V166.596ZM723.882 164.443C723.596 164.443 723.355 164.349 723.159 164.162C722.964 163.975 722.866 163.75 722.866 163.488C722.866 163.238 722.964 163.02 723.159 162.833C723.355 162.646 723.596 162.552 723.882 162.552C724.169 162.552 724.41 162.646 724.605 162.833C724.801 163.007 724.899 163.22 724.899 163.469C724.899 163.744 724.801 163.975 724.605 164.162C724.41 164.349 724.169 164.443 723.882 164.443Z" fill="white"/>
<path d="M733.723 166.521C734.687 166.521 735.56 166.733 736.342 167.157C737.123 167.569 737.736 168.156 738.178 168.917C738.621 169.678 738.843 170.546 738.843 171.519C738.843 172.492 738.621 173.36 738.178 174.121C737.736 174.882 737.123 175.475 736.342 175.9C735.56 176.324 734.687 176.536 733.723 176.536C732.863 176.536 732.088 176.361 731.397 176.012C730.72 175.662 730.173 175.157 729.756 174.496V176.442H728.427V162.552H729.814V168.468C730.244 167.831 730.792 167.351 731.456 167.026C732.133 166.689 732.889 166.521 733.723 166.521ZM733.625 175.357C734.342 175.357 734.993 175.201 735.579 174.889C736.166 174.564 736.622 174.109 736.947 173.522C737.286 172.935 737.455 172.268 737.455 171.519C737.455 170.77 737.286 170.102 736.947 169.516C736.622 168.929 736.166 168.48 735.579 168.168C734.993 167.844 734.342 167.681 733.625 167.681C732.896 167.681 732.238 167.844 731.651 168.168C731.078 168.48 730.622 168.929 730.284 169.516C729.958 170.102 729.795 170.77 729.795 171.519C729.795 172.268 729.958 172.935 730.284 173.522C730.622 174.109 731.078 174.564 731.651 174.889C732.238 175.201 732.896 175.357 733.625 175.357Z" fill="white"/>
<path d="M743 168.524C743.326 167.862 743.808 167.363 744.446 167.026C745.098 166.689 745.899 166.521 746.85 166.521V167.812L746.518 167.794C745.436 167.794 744.59 168.112 743.977 168.748C743.365 169.385 743.059 170.277 743.059 171.425V176.442H741.671V166.596H743V168.524Z" fill="white"/>
<path d="M752.939 166.521C754.281 166.521 755.31 166.845 756.026 167.494C756.743 168.131 757.101 169.079 757.101 170.34V176.442H755.772V174.907C755.46 175.419 754.997 175.818 754.385 176.105C753.786 176.392 753.069 176.536 752.235 176.536C751.089 176.536 750.177 176.274 749.499 175.75C748.822 175.226 748.483 174.533 748.483 173.672C748.483 172.836 748.796 172.162 749.421 171.65C750.06 171.138 751.069 170.882 752.45 170.882H755.714V170.283C755.714 169.435 755.466 168.792 754.971 168.355C754.476 167.906 753.753 167.681 752.802 167.681C752.151 167.681 751.525 167.787 750.926 168C750.327 168.199 749.812 168.48 749.382 168.842L748.757 167.85C749.278 167.425 749.903 167.101 750.633 166.876C751.362 166.639 752.131 166.521 752.939 166.521ZM752.45 175.488C753.232 175.488 753.903 175.319 754.463 174.982C755.023 174.633 755.44 174.134 755.714 173.485V171.875H752.489C750.731 171.875 749.851 172.461 749.851 173.634C749.851 174.208 750.079 174.664 750.535 175.001C750.991 175.325 751.629 175.488 752.45 175.488Z" fill="white"/>
<path d="M762.199 168.524C762.524 167.862 763.006 167.363 763.645 167.026C764.296 166.689 765.097 166.521 766.048 166.521V167.812L765.716 167.794C764.635 167.794 763.788 168.112 763.176 168.748C762.563 169.385 762.257 170.277 762.257 171.425V176.442H760.87V166.596H762.199V168.524Z" fill="white"/>
<path d="M777.637 166.596L772.498 177.622C772.081 178.545 771.599 179.201 771.051 179.587C770.504 179.974 769.846 180.168 769.078 180.168C768.583 180.168 768.12 180.093 767.69 179.943C767.26 179.793 766.889 179.569 766.576 179.269L767.221 178.277C767.742 178.776 768.368 179.026 769.097 179.026C769.566 179.026 769.964 178.901 770.289 178.651C770.628 178.402 770.941 177.977 771.227 177.378L771.677 176.424L767.084 166.596H768.531L772.4 174.964L776.269 166.596H777.637Z" fill="white"/>
<path d="M67.888 24.848H63.856V35H58.06V9.8H63.856V19.988H68.032L74.656 9.8H80.812L72.568 21.968L81.064 35H74.44L67.888 24.848ZM102.503 15.632V35H96.8866V20.24H90.7666L90.5866 23.66C90.4906 26.204 90.2506 28.316 89.8666 29.996C89.4826 31.676 88.8586 32.996 87.9946 33.956C87.1306 34.916 85.9306 35.396 84.3946 35.396C83.5786 35.396 82.6066 35.252 81.4786 34.964L81.7666 30.356C82.1506 30.404 82.4266 30.428 82.5946 30.428C83.4346 30.428 84.0586 30.128 84.4666 29.528C84.8986 28.904 85.1866 28.124 85.3306 27.188C85.4746 26.228 85.5826 24.968 85.6546 23.408L85.9426 15.632H102.503ZM115.427 15.344C118.427 15.344 120.731 16.064 122.339 17.504C123.947 18.92 124.751 21.068 124.751 23.948V35H119.495V32.588C118.439 34.388 116.471 35.288 113.591 35.288C112.103 35.288 110.807 35.036 109.703 34.532C108.623 34.028 107.795 33.332 107.219 32.444C106.643 31.556 106.355 30.548 106.355 29.42C106.355 27.62 107.027 26.204 108.371 25.172C109.739 24.14 111.839 23.624 114.671 23.624H119.135C119.135 22.4 118.763 21.464 118.019 20.816C117.275 20.144 116.159 19.808 114.671 19.808C113.639 19.808 112.619 19.976 111.611 20.312C110.627 20.624 109.787 21.056 109.091 21.608L107.075 17.684C108.131 16.94 109.391 16.364 110.855 15.956C112.343 15.548 113.867 15.344 115.427 15.344ZM114.995 31.508C115.955 31.508 116.807 31.292 117.551 30.86C118.295 30.404 118.823 29.744 119.135 28.88V26.9H115.283C112.979 26.9 111.827 27.656 111.827 29.168C111.827 29.888 112.103 30.464 112.655 30.896C113.231 31.304 114.011 31.508 114.995 31.508ZM138.846 35.288C136.782 35.288 134.922 34.868 133.266 34.028C131.634 33.164 130.35 31.976 129.414 30.464C128.502 28.952 128.046 27.236 128.046 25.316C128.046 23.396 128.502 21.68 129.414 20.168C130.35 18.656 131.634 17.48 133.266 16.64C134.922 15.776 136.782 15.344 138.846 15.344C140.886 15.344 142.662 15.776 144.174 16.64C145.71 17.48 146.826 18.692 147.522 20.276L143.166 22.616C142.158 20.84 140.706 19.952 138.81 19.952C137.346 19.952 136.134 20.432 135.174 21.392C134.214 22.352 133.734 23.66 133.734 25.316C133.734 26.972 134.214 28.28 135.174 29.24C136.134 30.2 137.346 30.68 138.81 30.68C140.73 30.68 142.182 29.792 143.166 28.016L147.522 30.392C146.826 31.928 145.71 33.128 144.174 33.992C142.662 34.856 140.886 35.288 138.846 35.288ZM159.904 35.288C157.84 35.288 155.98 34.868 154.324 34.028C152.692 33.164 151.408 31.976 150.472 30.464C149.56 28.952 149.104 27.236 149.104 25.316C149.104 23.396 149.56 21.68 150.472 20.168C151.408 18.656 152.692 17.48 154.324 16.64C155.98 15.776 157.84 15.344 159.904 15.344C161.944 15.344 163.72 15.776 165.232 16.64C166.768 17.48 167.884 18.692 168.58 20.276L164.224 22.616C163.216 20.84 161.764 19.952 159.868 19.952C158.404 19.952 157.192 20.432 156.232 21.392C155.272 22.352 154.792 23.66 154.792 25.316C154.792 26.972 155.272 28.28 156.232 29.24C157.192 30.2 158.404 30.68 159.868 30.68C161.788 30.68 163.24 29.792 164.224 28.016L168.58 30.392C167.884 31.928 166.768 33.128 165.232 33.992C163.72 34.856 161.944 35.288 159.904 35.288ZM182.181 21.824C184.701 21.848 186.609 22.412 187.905 23.516C189.201 24.62 189.849 26.204 189.849 28.268C189.849 30.428 189.117 32.096 187.653 33.272C186.189 34.448 184.113 35.036 181.425 35.036L171.993 35V15.632H177.573V21.824H182.181ZM191.937 15.632H197.517V35H191.937V15.632ZM180.921 31.04C182.001 31.064 182.829 30.836 183.405 30.356C183.981 29.876 184.269 29.156 184.269 28.196C184.269 27.26 183.981 26.576 183.405 26.144C182.853 25.712 182.025 25.484 180.921 25.46L177.573 25.424V31.04H180.921Z" fill="url(#paint1_linear_43_17)"/>
<path d="M291.064 137L291.028 121.916L283.612 134.336H281.02L273.604 122.204V137H268.132V111.8H272.956L282.388 127.46L291.676 111.8H296.5L296.536 137H291.064ZM309.888 117.344C312.888 117.344 315.192 118.064 316.8 119.504C318.408 120.92 319.212 123.068 319.212 125.948V137H313.956V134.588C312.9 136.388 310.932 137.288 308.052 137.288C306.564 137.288 305.268 137.036 304.164 136.532C303.084 136.028 302.256 135.332 301.68 134.444C301.104 133.556 300.816 132.548 300.816 131.42C300.816 129.62 301.488 128.204 302.832 127.172C304.2 126.14 306.3 125.624 309.132 125.624H313.596C313.596 124.4 313.224 123.464 312.48 122.816C311.736 122.144 310.62 121.808 309.132 121.808C308.1 121.808 307.08 121.976 306.072 122.312C305.088 122.624 304.248 123.056 303.552 123.608L301.536 119.684C302.592 118.94 303.852 118.364 305.316 117.956C306.804 117.548 308.328 117.344 309.888 117.344ZM309.456 133.508C310.416 133.508 311.268 133.292 312.012 132.86C312.756 132.404 313.284 131.744 313.596 130.88V128.9H309.744C307.44 128.9 306.288 129.656 306.288 131.168C306.288 131.888 306.564 132.464 307.116 132.896C307.692 133.304 308.472 133.508 309.456 133.508ZM333.307 137.288C331.243 137.288 329.383 136.868 327.727 136.028C326.095 135.164 324.811 133.976 323.875 132.464C322.963 130.952 322.507 129.236 322.507 127.316C322.507 125.396 322.963 123.68 323.875 122.168C324.811 120.656 326.095 119.48 327.727 118.64C329.383 117.776 331.243 117.344 333.307 117.344C335.347 117.344 337.123 117.776 338.635 118.64C340.171 119.48 341.287 120.692 341.983 122.276L337.627 124.616C336.619 122.84 335.167 121.952 333.271 121.952C331.807 121.952 330.595 122.432 329.635 123.392C328.675 124.352 328.195 125.66 328.195 127.316C328.195 128.972 328.675 130.28 329.635 131.24C330.595 132.2 331.807 132.68 333.271 132.68C335.191 132.68 336.643 131.792 337.627 130.016L341.983 132.392C341.287 133.928 340.171 135.128 338.635 135.992C337.123 136.856 335.347 137.288 333.307 137.288ZM354.365 137.288C352.301 137.288 350.441 136.868 348.785 136.028C347.153 135.164 345.869 133.976 344.933 132.464C344.021 130.952 343.565 129.236 343.565 127.316C343.565 125.396 344.021 123.68 344.933 122.168C345.869 120.656 347.153 119.48 348.785 118.64C350.441 117.776 352.301 117.344 354.365 117.344C356.405 117.344 358.181 117.776 359.693 118.64C361.229 119.48 362.345 120.692 363.041 122.276L358.685 124.616C357.677 122.84 356.225 121.952 354.329 121.952C352.865 121.952 351.653 122.432 350.693 123.392C349.733 124.352 349.253 125.66 349.253 127.316C349.253 128.972 349.733 130.28 350.693 131.24C351.653 132.2 352.865 132.68 354.329 132.68C356.249 132.68 357.701 131.792 358.685 130.016L363.041 132.392C362.345 133.928 361.229 135.128 359.693 135.992C358.181 136.856 356.405 137.288 354.365 137.288ZM366.454 117.632H372.034V129.152L381.466 117.632H386.614V137H381.034V125.48L371.638 137H366.454V117.632ZM406.809 126.884C409.089 127.652 410.229 129.188 410.229 131.492C410.229 133.244 409.569 134.6 408.249 135.56C406.929 136.52 404.961 137 402.345 137H392.013V117.632H401.913C404.337 117.632 406.233 118.076 407.601 118.964C408.969 119.828 409.652 121.052 409.652 122.636C409.652 123.596 409.401 124.448 408.897 125.192C408.417 125.912 407.721 126.476 406.809 126.884ZM397.161 125.588H401.409C403.377 125.588 404.361 124.892 404.361 123.5C404.361 122.132 403.377 121.448 401.409 121.448H397.161V125.588ZM401.877 133.184C403.941 133.184 404.973 132.476 404.973 131.06C404.973 130.316 404.733 129.776 404.253 129.44C403.773 129.08 403.017 128.9 401.985 128.9H397.161V133.184H401.877ZM424.595 123.824C427.115 123.848 429.023 124.412 430.319 125.516C431.615 126.62 432.263 128.204 432.263 130.268C432.263 132.428 431.531 134.096 430.067 135.272C428.603 136.448 426.527 137.036 423.839 137.036L414.407 137V117.632H419.987V123.824H424.595ZM434.351 117.632H439.931V137H434.351V117.632ZM423.335 133.04C424.415 133.064 425.243 132.836 425.819 132.356C426.395 131.876 426.683 131.156 426.683 130.196C426.683 129.26 426.395 128.576 425.819 128.144C425.267 127.712 424.439 127.484 423.335 127.46L419.987 127.424V133.04H423.335Z" fill="url(#paint2_linear_43_17)"/>
<path d="M375.464 75.4H367.664L366.176 79H362.192L369.68 62.2H373.52L381.032 79H376.952L375.464 75.4ZM374.24 72.448L371.576 66.016L368.912 72.448H374.24ZM382.972 66.088H386.692V71.128H392.308V66.088H396.052V79H392.308V74.176H386.692V79H382.972V66.088ZM399.636 66.088H403.356V73.768L409.644 66.088H413.076V79H409.356V71.32L403.092 79H399.636V66.088ZM429.275 79V71.272L425.411 77.752H423.827L420.059 71.248V79H416.675V66.088H420.587L424.715 73.552L429.107 66.088H432.611L432.659 79H429.275ZM441.261 65.896C443.261 65.896 444.797 66.376 445.869 67.336C446.941 68.28 447.477 69.712 447.477 71.632V79H443.973V77.392C443.269 78.592 441.957 79.192 440.037 79.192C439.045 79.192 438.181 79.024 437.445 78.688C436.725 78.352 436.173 77.888 435.789 77.296C435.405 76.704 435.213 76.032 435.213 75.28C435.213 74.08 435.661 73.136 436.557 72.448C437.469 71.76 438.869 71.416 440.757 71.416H443.733C443.733 70.6 443.485 69.976 442.989 69.544C442.493 69.096 441.749 68.872 440.757 68.872C440.069 68.872 439.389 68.984 438.717 69.208C438.061 69.416 437.501 69.704 437.037 70.072L435.693 67.456C436.397 66.96 437.237 66.576 438.213 66.304C439.205 66.032 440.221 65.896 441.261 65.896ZM440.973 76.672C441.613 76.672 442.181 76.528 442.677 76.24C443.173 75.936 443.525 75.496 443.733 74.92V73.6H441.165C439.629 73.6 438.861 74.104 438.861 75.112C438.861 75.592 439.045 75.976 439.413 76.264C439.797 76.536 440.317 76.672 440.973 76.672ZM465.274 75.928V81.832H461.794V79H450.73V66.088H454.45V75.928H459.658V66.088H463.402V75.928H465.274ZM467.628 66.088H471.348V73.768L477.636 66.088H481.068V79H477.348V71.32L471.084 79H467.628V66.088ZM484.667 66.088H488.387V73.768L494.675 66.088H498.107V79H494.387V71.32L488.123 79H484.667V66.088Z" fill="url(#paint3_linear_43_17)"/>
<path d="M406.416 194.832V201.48H402.816V198H390.96V201.48H387.36L387.384 194.832H388.056C389.064 194.8 389.776 194.064 390.192 192.624C390.608 191.184 390.864 189.128 390.96 186.456L391.152 181.2H404.064V194.832H406.416ZM394.392 186.816C394.312 188.816 394.144 190.496 393.888 191.856C393.632 193.2 393.24 194.192 392.712 194.832H400.224V184.368H394.464L394.392 186.816ZM408.745 185.088H412.465V192.768L418.753 185.088H422.185V198H418.465V190.32L412.201 198H408.745V185.088ZM430.8 184.896C432.8 184.896 434.336 185.376 435.408 186.336C436.48 187.28 437.016 188.712 437.016 190.632V198H433.512V196.392C432.808 197.592 431.496 198.192 429.576 198.192C428.584 198.192 427.72 198.024 426.984 197.688C426.264 197.352 425.712 196.888 425.328 196.296C424.944 195.704 424.752 195.032 424.752 194.28C424.752 193.08 425.2 192.136 426.096 191.448C427.008 190.76 428.408 190.416 430.296 190.416H433.272C433.272 189.6 433.024 188.976 432.528 188.544C432.032 188.096 431.288 187.872 430.296 187.872C429.608 187.872 428.928 187.984 428.256 188.208C427.6 188.416 427.04 188.704 426.576 189.072L425.232 186.456C425.936 185.96 426.776 185.576 427.752 185.304C428.744 185.032 429.76 184.896 430.8 184.896ZM430.512 195.672C431.152 195.672 431.72 195.528 432.216 195.24C432.712 194.936 433.064 194.496 433.272 193.92V192.6H430.704C429.168 192.6 428.4 193.104 428.4 194.112C428.4 194.592 428.584 194.976 428.952 195.264C429.336 195.536 429.856 195.672 430.512 195.672ZM452.653 185.088V198H448.909V188.16H444.829L444.709 190.44C444.645 192.136 444.485 193.544 444.229 194.664C443.973 195.784 443.557 196.664 442.981 197.304C442.405 197.944 441.605 198.264 440.581 198.264C440.037 198.264 439.389 198.168 438.637 197.976L438.829 194.904C439.085 194.936 439.269 194.952 439.381 194.952C439.941 194.952 440.357 194.752 440.629 194.352C440.917 193.936 441.109 193.416 441.205 192.792C441.301 192.152 441.373 191.312 441.421 190.272L441.613 185.088H452.653ZM462.301 198.192C460.941 198.192 459.717 197.912 458.629 197.352C457.557 196.776 456.717 195.984 456.109 194.976C455.501 193.968 455.197 192.824 455.197 191.544C455.197 190.264 455.501 189.12 456.109 188.112C456.717 187.104 457.557 186.32 458.629 185.76C459.717 185.184 460.941 184.896 462.301 184.896C463.661 184.896 464.877 185.184 465.949 185.76C467.021 186.32 467.861 187.104 468.469 188.112C469.077 189.12 469.381 190.264 469.381 191.544C469.381 192.824 469.077 193.968 468.469 194.976C467.861 195.984 467.021 196.776 465.949 197.352C464.877 197.912 463.661 198.192 462.301 198.192ZM462.301 195.12C463.261 195.12 464.045 194.8 464.653 194.16C465.277 193.504 465.589 192.632 465.589 191.544C465.589 190.456 465.277 189.592 464.653 188.952C464.045 188.296 463.261 187.968 462.301 187.968C461.341 187.968 460.549 188.296 459.925 188.952C459.301 189.592 458.989 190.456 458.989 191.544C458.989 192.632 459.301 193.504 459.925 194.16C460.549 194.8 461.341 195.12 462.301 195.12ZM482.3 188.16H475.676V198H471.956V185.088H482.3V188.16ZM484.284 185.088H488.004V192.768L494.292 185.088H497.724V198H494.004V190.32L487.74 198H484.284V185.088Z" fill="url(#paint4_linear_43_17)"/>
<path d="M906.184 178.6V201H901.064V192.936C899.123 193.64 897.32 193.992 895.656 193.992C892.648 193.992 890.344 193.277 888.744 191.848C887.144 190.397 886.344 188.317 886.344 185.608V178.6H891.464V185.032C891.464 186.568 891.869 187.731 892.68 188.52C893.512 189.288 894.707 189.672 896.264 189.672C897.971 189.672 899.571 189.341 901.064 188.68V178.6H906.184ZM911.369 183.784H916.329V194.024L924.713 183.784H929.289V201H924.329V190.76L915.977 201H911.369V183.784ZM942.28 201.256C940.445 201.256 938.792 200.883 937.32 200.136C935.869 199.368 934.728 198.312 933.896 196.968C933.085 195.624 932.68 194.099 932.68 192.392C932.68 190.685 933.085 189.16 933.896 187.816C934.728 186.472 935.869 185.427 937.32 184.68C938.792 183.912 940.445 183.528 942.28 183.528C944.093 183.528 945.672 183.912 947.016 184.68C948.381 185.427 949.373 186.504 949.992 187.912L946.12 189.992C945.224 188.413 943.933 187.624 942.248 187.624C940.946 187.624 939.869 188.051 939.016 188.904C938.162 189.757 937.736 190.92 937.736 192.392C937.736 193.864 938.162 195.027 939.016 195.88C939.869 196.733 940.946 197.16 942.248 197.16C943.954 197.16 945.245 196.371 946.12 194.792L949.992 196.904C949.373 198.269 948.381 199.336 947.016 200.104C945.672 200.872 944.093 201.256 942.28 201.256ZM969.287 183.784V201H964.295V187.88H958.855L958.695 190.92C958.61 193.181 958.396 195.059 958.055 196.552C957.714 198.045 957.159 199.219 956.391 200.072C955.623 200.925 954.556 201.352 953.191 201.352C952.466 201.352 951.602 201.224 950.599 200.968L950.855 196.872C951.196 196.915 951.442 196.936 951.591 196.936C952.338 196.936 952.892 196.669 953.255 196.136C953.639 195.581 953.895 194.888 954.023 194.056C954.151 193.203 954.247 192.083 954.311 190.696L954.567 183.784H969.287ZM980.776 183.528C983.442 183.528 985.49 184.168 986.92 185.448C988.349 186.707 989.064 188.616 989.064 191.176V201H984.392V198.856C983.453 200.456 981.704 201.256 979.144 201.256C977.821 201.256 976.669 201.032 975.688 200.584C974.728 200.136 973.992 199.517 973.48 198.728C972.968 197.939 972.712 197.043 972.712 196.04C972.712 194.44 973.309 193.181 974.504 192.264C975.72 191.347 977.586 190.888 980.104 190.888H984.072C984.072 189.8 983.741 188.968 983.08 188.392C982.418 187.795 981.426 187.496 980.104 187.496C979.186 187.496 978.28 187.645 977.384 187.944C976.509 188.221 975.762 188.605 975.144 189.096L973.352 185.608C974.29 184.947 975.41 184.435 976.712 184.072C978.034 183.709 979.389 183.528 980.776 183.528ZM980.392 197.896C981.245 197.896 982.002 197.704 982.664 197.32C983.325 196.915 983.794 196.328 984.072 195.56V193.8H980.648C978.6 193.8 977.576 194.472 977.576 195.816C977.576 196.456 977.821 196.968 978.312 197.352C978.824 197.715 979.517 197.896 980.392 197.896Z" fill="url(#paint5_linear_43_17)"/>
<path d="M932.888 117.848H928.856V128H923.06V102.8H928.856V112.988H933.032L939.656 102.8H945.812L937.568 114.968L946.064 128H939.44L932.888 117.848ZM956.064 108.344C959.064 108.344 961.368 109.064 962.976 110.504C964.584 111.92 965.388 114.068 965.388 116.948V128H960.132V125.588C959.076 127.388 957.108 128.288 954.228 128.288C952.74 128.288 951.444 128.036 950.34 127.532C949.26 127.028 948.432 126.332 947.856 125.444C947.28 124.556 946.992 123.548 946.992 122.42C946.992 120.62 947.664 119.204 949.008 118.172C950.376 117.14 952.476 116.624 955.308 116.624H959.772C959.772 115.4 959.4 114.464 958.656 113.816C957.912 113.144 956.796 112.808 955.308 112.808C954.276 112.808 953.256 112.976 952.248 113.312C951.264 113.624 950.424 114.056 949.728 114.608L947.712 110.684C948.768 109.94 950.028 109.364 951.492 108.956C952.98 108.548 954.504 108.344 956.064 108.344ZM955.632 124.508C956.592 124.508 957.444 124.292 958.188 123.86C958.932 123.404 959.46 122.744 959.772 121.88V119.9H955.92C953.616 119.9 952.464 120.656 952.464 122.168C952.464 122.888 952.74 123.464 953.292 123.896C953.868 124.304 954.648 124.508 955.632 124.508ZM979.482 128.288C977.418 128.288 975.558 127.868 973.902 127.028C972.27 126.164 970.986 124.976 970.05 123.464C969.138 121.952 968.682 120.236 968.682 118.316C968.682 116.396 969.138 114.68 970.05 113.168C970.986 111.656 972.27 110.48 973.902 109.64C975.558 108.776 977.418 108.344 979.482 108.344C981.522 108.344 983.298 108.776 984.81 109.64C986.346 110.48 987.462 111.692 988.158 113.276L983.802 115.616C982.794 113.84 981.342 112.952 979.446 112.952C977.982 112.952 976.77 113.432 975.81 114.392C974.85 115.352 974.37 116.66 974.37 118.316C974.37 119.972 974.85 121.28 975.81 122.24C976.77 123.2 977.982 123.68 979.446 123.68C981.366 123.68 982.818 122.792 983.802 121.016L988.158 123.392C987.462 124.928 986.346 126.128 984.81 126.992C983.298 127.856 981.522 128.288 979.482 128.288ZM1007.77 113.24H1001.22V128H995.641V113.24H989.089V108.632H1007.77V113.24ZM1019.03 128.288C1016.99 128.288 1015.15 127.868 1013.52 127.028C1011.91 126.164 1010.65 124.976 1009.74 123.464C1008.83 121.952 1008.37 120.236 1008.37 118.316C1008.37 116.396 1008.83 114.68 1009.74 113.168C1010.65 111.656 1011.91 110.48 1013.52 109.64C1015.15 108.776 1016.99 108.344 1019.03 108.344C1021.07 108.344 1022.89 108.776 1024.5 109.64C1026.11 110.48 1027.37 111.656 1028.28 113.168C1029.19 114.68 1029.65 116.396 1029.65 118.316C1029.65 120.236 1029.19 121.952 1028.28 123.464C1027.37 124.976 1026.11 126.164 1024.5 127.028C1022.89 127.868 1021.07 128.288 1019.03 128.288ZM1019.03 123.68C1020.47 123.68 1021.65 123.2 1022.56 122.24C1023.49 121.256 1023.96 119.948 1023.96 118.316C1023.96 116.684 1023.49 115.388 1022.56 114.428C1021.65 113.444 1020.47 112.952 1019.03 112.952C1017.59 112.952 1016.4 113.444 1015.47 114.428C1014.53 115.388 1014.06 116.684 1014.06 118.316C1014.06 119.948 1014.53 121.256 1015.47 122.24C1016.4 123.2 1017.59 123.68 1019.03 123.68ZM1052.41 128V116.408L1046.62 126.128H1044.24L1038.59 116.372V128H1033.51V108.632H1039.38L1045.57 119.828L1052.16 108.632H1057.42L1057.49 128H1052.41ZM1062.87 108.632H1068.45V116.192H1076.87V108.632H1082.49V128H1076.87V120.764H1068.45V128H1062.87V108.632ZM1098.05 114.824C1100.57 114.848 1102.48 115.412 1103.78 116.516C1105.07 117.62 1105.72 119.204 1105.72 121.268C1105.72 123.428 1104.99 125.096 1103.52 126.272C1102.06 127.448 1099.98 128.036 1097.3 128.036L1087.86 128V108.632H1093.44V114.824H1098.05ZM1107.81 108.632H1113.39V128H1107.81V108.632ZM1096.79 124.04C1097.87 124.064 1098.7 123.836 1099.28 123.356C1099.85 122.876 1100.14 122.156 1100.14 121.196C1100.14 120.26 1099.85 119.576 1099.28 119.144C1098.72 118.712 1097.9 118.484 1096.79 118.46L1093.44 118.424V124.04H1096.79ZM1137.63 118.388C1137.63 118.46 1137.59 118.964 1137.52 119.9H1122.87C1123.13 121.1 1123.76 122.048 1124.74 122.744C1125.73 123.44 1126.95 123.788 1128.41 123.788C1129.42 123.788 1130.31 123.644 1131.08 123.356C1131.87 123.044 1132.6 122.564 1133.27 121.916L1136.26 125.156C1134.44 127.244 1131.77 128.288 1128.27 128.288C1126.09 128.288 1124.15 127.868 1122.47 127.028C1120.79 126.164 1119.5 124.976 1118.59 123.464C1117.67 121.952 1117.22 120.236 1117.22 118.316C1117.22 116.42 1117.66 114.716 1118.55 113.204C1119.46 111.668 1120.7 110.48 1122.26 109.64C1123.84 108.776 1125.61 108.344 1127.55 108.344C1129.45 108.344 1131.16 108.752 1132.7 109.568C1134.23 110.384 1135.43 111.56 1136.3 113.096C1137.19 114.608 1137.63 116.372 1137.63 118.388ZM1127.59 112.592C1126.31 112.592 1125.25 112.952 1124.38 113.672C1123.52 114.392 1122.99 115.376 1122.8 116.624H1132.34C1132.15 115.4 1131.62 114.428 1130.75 113.708C1129.89 112.964 1128.83 112.592 1127.59 112.592ZM1159.65 108.344C1162.65 108.344 1164.96 109.064 1166.57 110.504C1168.17 111.92 1168.98 114.068 1168.98 116.948V128H1163.72V125.588C1162.67 127.388 1160.7 128.288 1157.82 128.288C1156.33 128.288 1155.03 128.036 1153.93 127.532C1152.85 127.028 1152.02 126.332 1151.45 125.444C1150.87 124.556 1150.58 123.548 1150.58 122.42C1150.58 120.62 1151.25 119.204 1152.6 118.172C1153.97 117.14 1156.07 116.624 1158.9 116.624H1163.36C1163.36 115.4 1162.99 114.464 1162.25 113.816C1161.5 113.144 1160.39 112.808 1158.9 112.808C1157.87 112.808 1156.85 112.976 1155.84 113.312C1154.85 113.624 1154.01 114.056 1153.32 114.608L1151.3 110.684C1152.36 109.94 1153.62 109.364 1155.08 108.956C1156.57 108.548 1158.09 108.344 1159.65 108.344ZM1159.22 124.508C1160.18 124.508 1161.03 124.292 1161.78 123.86C1162.52 123.404 1163.05 122.744 1163.36 121.88V119.9H1159.51C1157.21 119.9 1156.05 120.656 1156.05 122.168C1156.05 122.888 1156.33 123.464 1156.88 123.896C1157.46 124.304 1158.24 124.508 1159.22 124.508ZM1190.13 113.24H1183.58V128H1178V113.24H1171.44V108.632H1190.13V113.24ZM1204.53 108.344C1206.33 108.344 1207.97 108.764 1209.43 109.604C1210.92 110.42 1212.08 111.584 1212.92 113.096C1213.76 114.584 1214.18 116.324 1214.18 118.316C1214.18 120.308 1213.76 122.06 1212.92 123.572C1212.08 125.06 1210.92 126.224 1209.43 127.064C1207.97 127.88 1206.33 128.288 1204.53 128.288C1202.06 128.288 1200.12 127.508 1198.7 125.948V134.984H1193.09V108.632H1198.45V110.864C1199.84 109.184 1201.87 108.344 1204.53 108.344ZM1203.56 123.68C1205 123.68 1206.18 123.2 1207.09 122.24C1208.03 121.256 1208.49 119.948 1208.49 118.316C1208.49 116.684 1208.03 115.388 1207.09 114.428C1206.18 113.444 1205 112.952 1203.56 112.952C1202.12 112.952 1200.93 113.444 1200 114.428C1199.09 115.388 1198.63 116.684 1198.63 118.316C1198.63 119.948 1199.09 121.256 1200 122.24C1200.93 123.2 1202.12 123.68 1203.56 123.68ZM1218.12 108.632H1223.7V120.152L1233.13 108.632H1238.28V128H1232.7V116.48L1223.3 128H1218.12V108.632ZM1254.87 109.964C1256.72 109.964 1258.34 110.348 1259.73 111.116C1261.12 111.86 1262.19 112.916 1262.94 114.284C1263.7 115.652 1264.09 117.236 1264.09 119.036C1264.09 120.884 1263.63 122.528 1262.72 123.968C1261.83 125.384 1260.58 126.488 1258.98 127.28C1257.37 128.048 1255.54 128.432 1253.5 128.432C1250.12 128.432 1247.46 127.352 1245.51 125.192C1243.59 123.008 1242.63 119.816 1242.63 115.616C1242.63 111.728 1243.47 108.632 1245.15 106.328C1246.86 104 1249.46 102.476 1252.96 101.756L1262.18 99.92L1262.94 104.744L1254.8 106.364C1252.59 106.796 1250.95 107.516 1249.87 108.524C1248.81 109.532 1248.19 110.96 1248 112.808C1248.84 111.896 1249.84 111.2 1251.02 110.72C1252.2 110.216 1253.48 109.964 1254.87 109.964ZM1253.54 124.076C1254.98 124.076 1256.13 123.608 1257 122.672C1257.88 121.736 1258.33 120.548 1258.33 119.108C1258.33 117.644 1257.88 116.48 1257 115.616C1256.13 114.752 1254.98 114.32 1253.54 114.32C1252.08 114.32 1250.9 114.752 1250.01 115.616C1249.12 116.48 1248.68 117.644 1248.68 119.108C1248.68 120.572 1249.14 121.772 1250.05 122.708C1250.96 123.62 1252.12 124.076 1253.54 124.076ZM1286.78 108.632L1278.03 129.188C1277.14 131.42 1276.04 132.992 1274.72 133.904C1273.42 134.816 1271.85 135.272 1270 135.272C1268.99 135.272 1268 135.116 1267.01 134.804C1266.03 134.492 1265.22 134.06 1264.6 133.508L1266.65 129.512C1267.08 129.896 1267.58 130.196 1268.13 130.412C1268.7 130.628 1269.27 130.736 1269.82 130.736C1270.59 130.736 1271.21 130.544 1271.69 130.16C1272.17 129.8 1272.6 129.188 1272.99 128.324L1273.06 128.144L1264.67 108.632H1270.47L1275.9 121.772L1281.38 108.632H1286.78ZM1305.93 113.24H1299.38V128H1293.8V113.24H1287.25V108.632H1305.93V113.24ZM1319.11 114.824C1321.63 114.848 1323.54 115.412 1324.84 116.516C1326.13 117.62 1326.78 119.204 1326.78 121.268C1326.78 123.428 1326.05 125.096 1324.59 126.272C1323.12 127.448 1321.05 128.036 1318.36 128.036L1308.93 128V108.632H1314.51V114.824H1319.11ZM1328.87 108.632H1334.45V128H1328.87V108.632ZM1317.85 124.04C1318.93 124.064 1319.76 123.836 1320.34 123.356C1320.91 122.876 1321.2 122.156 1321.2 121.196C1321.2 120.26 1320.91 119.576 1320.34 119.144C1319.79 118.712 1318.96 118.484 1317.85 118.46L1314.51 118.424V124.04H1317.85Z" fill="url(#paint6_linear_43_17)"/>
<path d="M1046.32 228.72H1041.84V240H1035.4V212H1041.84V223.32H1046.48L1053.84 212H1060.68L1051.52 225.52L1060.96 240H1053.6L1046.32 228.72ZM1073.28 240.32C1071.02 240.32 1068.98 239.853 1067.16 238.92C1065.38 237.96 1063.98 236.64 1062.96 234.96C1061.95 233.28 1061.44 231.373 1061.44 229.24C1061.44 227.107 1061.95 225.2 1062.96 223.52C1063.98 221.84 1065.38 220.533 1067.16 219.6C1068.98 218.64 1071.02 218.16 1073.28 218.16C1075.55 218.16 1077.58 218.64 1079.36 219.6C1081.15 220.533 1082.55 221.84 1083.56 223.52C1084.58 225.2 1085.08 227.107 1085.08 229.24C1085.08 231.373 1084.58 233.28 1083.56 234.96C1082.55 236.64 1081.15 237.96 1079.36 238.92C1077.58 239.853 1075.55 240.32 1073.28 240.32ZM1073.28 235.2C1074.88 235.2 1076.19 234.667 1077.2 233.6C1078.24 232.507 1078.76 231.053 1078.76 229.24C1078.76 227.427 1078.24 225.987 1077.2 224.92C1076.19 223.827 1074.88 223.28 1073.28 223.28C1071.68 223.28 1070.36 223.827 1069.32 224.92C1068.28 225.987 1067.76 227.427 1067.76 229.24C1067.76 231.053 1068.28 232.507 1069.32 233.6C1070.36 234.667 1071.68 235.2 1073.28 235.2ZM1089.38 218.48H1095.58V226.88H1104.94V218.48H1111.18V240H1104.94V231.96H1095.58V240H1089.38V218.48ZM1146.87 229.16C1146.87 232.493 1145.75 235.133 1143.51 237.08C1141.3 239 1138.12 240.107 1133.99 240.4V247.76H1128.27V240.4C1124.14 240.107 1120.95 239.013 1118.71 237.12C1116.5 235.2 1115.39 232.547 1115.39 229.16C1115.39 225.827 1116.48 223.24 1118.67 221.4C1120.88 219.56 1124.08 218.493 1128.27 218.2V210.32H1133.99V218.2C1138.12 218.493 1141.3 219.573 1143.51 221.44C1145.75 223.307 1146.87 225.88 1146.87 229.16ZM1121.43 229.16C1121.43 231.08 1121.98 232.56 1123.07 233.6C1124.16 234.64 1125.9 235.293 1128.27 235.56V223.04C1125.9 223.28 1124.16 223.907 1123.07 224.92C1121.98 225.907 1121.43 227.32 1121.43 229.16ZM1133.99 235.56C1136.36 235.293 1138.1 234.64 1139.19 233.6C1140.31 232.56 1140.87 231.08 1140.87 229.16C1140.87 227.32 1140.31 225.907 1139.19 224.92C1138.1 223.907 1136.36 223.28 1133.99 223.04V235.56ZM1151.09 218.48H1157.29V231.28L1167.77 218.48H1173.49V240H1167.29V227.2L1156.85 240H1151.09V218.48ZM1196.73 223.6H1185.69V240H1179.49V218.48H1196.73V223.6ZM1200.04 218.48H1206.24V231.28L1216.72 218.48H1222.44V240H1216.24V227.2L1205.8 240H1200.04V218.48Z" fill="url(#paint7_linear_43_17)"/>
<path d="M15.156 236.432C12.54 236.432 10.176 235.868 8.064 234.74C5.976 233.612 4.332 232.064 3.132 230.096C1.956 228.104 1.368 225.872 1.368 223.4C1.368 220.928 1.956 218.708 3.132 216.74C4.332 214.748 5.976 213.188 8.064 212.06C10.176 210.932 12.54 210.368 15.156 210.368C17.772 210.368 20.124 210.932 22.212 212.06C24.3 213.188 25.944 214.748 27.144 216.74C28.344 218.708 28.944 220.928 28.944 223.4C28.944 225.872 28.344 228.104 27.144 230.096C25.944 232.064 24.3 233.612 22.212 234.74C20.124 235.868 17.772 236.432 15.156 236.432ZM15.156 231.464C16.644 231.464 17.988 231.128 19.188 230.456C20.388 229.76 21.324 228.8 21.996 227.576C22.692 226.352 23.04 224.96 23.04 223.4C23.04 221.84 22.692 220.448 21.996 219.224C21.324 218 20.388 217.052 19.188 216.38C17.988 215.684 16.644 215.336 15.156 215.336C13.668 215.336 12.324 215.684 11.124 216.38C9.924 217.052 8.976 218 8.28 219.224C7.608 220.448 7.272 221.84 7.272 223.4C7.272 224.96 7.608 226.352 8.28 227.576C8.976 228.8 9.924 229.76 11.124 230.456C12.324 231.128 13.668 231.464 15.156 231.464ZM49.0306 221.24H42.4786V236H36.8986V221.24H30.3466V216.632H49.0306V221.24ZM60.5562 228.656H57.6402V236H52.0242V216.632H57.6402V224.156H60.6642L65.9202 216.632H71.8962L65.1282 225.92L72.3642 236H65.7402L60.5562 228.656ZM86.5339 216.344C88.3339 216.344 89.9659 216.764 91.4299 217.604C92.9179 218.42 94.0819 219.584 94.9219 221.096C95.7619 222.584 96.1819 224.324 96.1819 226.316C96.1819 228.308 95.7619 230.06 94.9219 231.572C94.0819 233.06 92.9179 234.224 91.4299 235.064C89.9659 235.88 88.3339 236.288 86.5339 236.288C84.0619 236.288 82.1179 235.508 80.7019 233.948V242.984H75.0859V216.632H80.4499V218.864C81.8419 217.184 83.8699 216.344 86.5339 216.344ZM85.5619 231.68C87.0019 231.68 88.1779 231.2 89.0899 230.24C90.0259 229.256 90.4939 227.948 90.4939 226.316C90.4939 224.684 90.0259 223.388 89.0899 222.428C88.1779 221.444 87.0019 220.952 85.5619 220.952C84.1219 220.952 82.9339 221.444 81.9979 222.428C81.0859 223.388 80.6299 224.684 80.6299 226.316C80.6299 227.948 81.0859 229.256 81.9979 230.24C82.9339 231.2 84.1219 231.68 85.5619 231.68ZM110.306 222.824C112.826 222.848 114.734 223.412 116.03 224.516C117.326 225.62 117.974 227.204 117.974 229.268C117.974 231.428 117.242 233.096 115.778 234.272C114.314 235.448 112.238 236.036 109.55 236.036L100.118 236V216.632H105.698V222.824H110.306ZM120.062 216.632H125.642V236H120.062V216.632ZM109.046 232.04C110.126 232.064 110.954 231.836 111.53 231.356C112.106 230.876 112.394 230.156 112.394 229.196C112.394 228.26 112.106 227.576 111.53 227.144C110.978 226.712 110.15 226.484 109.046 226.46L105.698 226.424V232.04H109.046ZM147.327 221.24H140.775V236H135.195V221.24H128.643V216.632H147.327V221.24ZM160.509 222.824C163.029 222.848 164.937 223.412 166.233 224.516C167.529 225.62 168.177 227.204 168.177 229.268C168.177 231.428 167.445 233.096 165.981 234.272C164.517 235.448 162.441 236.036 159.753 236.036L150.321 236V216.632H155.901V222.824H160.509ZM170.265 216.632H175.845V236H170.265V216.632ZM159.249 232.04C160.329 232.064 161.157 231.836 161.733 231.356C162.309 230.876 162.597 230.156 162.597 229.196C162.597 228.26 162.309 227.576 161.733 227.144C161.181 226.712 160.353 226.484 159.249 226.46L155.901 226.424V232.04H159.249ZM181.259 216.632H186.839V228.152L196.271 216.632H201.419V236H195.839V224.48L186.443 236H181.259V216.632ZM190.979 214.544C186.755 214.544 184.631 212.684 184.607 208.964H188.279C188.303 209.804 188.531 210.464 188.963 210.944C189.419 211.4 190.079 211.628 190.943 211.628C191.807 211.628 192.467 211.4 192.923 210.944C193.403 210.464 193.643 209.804 193.643 208.964H197.387C197.363 212.684 195.227 214.544 190.979 214.544ZM225.545 228.656H222.629V236H217.013V216.632H222.629V224.156H225.653L230.909 216.632H236.885L230.117 225.92L237.353 236H230.729L225.545 228.656ZM248.585 236.288C246.545 236.288 244.709 235.868 243.077 235.028C241.469 234.164 240.209 232.976 239.297 231.464C238.385 229.952 237.929 228.236 237.929 226.316C237.929 224.396 238.385 222.68 239.297 221.168C240.209 219.656 241.469 218.48 243.077 217.64C244.709 216.776 246.545 216.344 248.585 216.344C250.625 216.344 252.449 216.776 254.057 217.64C255.665 218.48 256.925 219.656 257.837 221.168C258.749 222.68 259.205 224.396 259.205 226.316C259.205 228.236 258.749 229.952 257.837 231.464C256.925 232.976 255.665 234.164 254.057 235.028C252.449 235.868 250.625 236.288 248.585 236.288ZM248.585 231.68C250.025 231.68 251.201 231.2 252.113 230.24C253.049 229.256 253.517 227.948 253.517 226.316C253.517 224.684 253.049 223.388 252.113 222.428C251.201 221.444 250.025 220.952 248.585 220.952C247.145 220.952 245.957 221.444 245.021 222.428C244.085 223.388 243.617 224.684 243.617 226.316C243.617 227.948 244.085 229.256 245.021 230.24C245.957 231.2 247.145 231.68 248.585 231.68ZM284.494 231.392V240.176H279.274V236H265.666V240.176H260.446V231.392H261.238C262.438 231.368 263.266 230.66 263.722 229.268C264.178 227.876 264.466 225.896 264.586 223.328L264.838 216.632H281.722V231.392H284.494ZM269.662 223.724C269.59 225.692 269.434 227.3 269.194 228.548C268.978 229.796 268.558 230.744 267.934 231.392H276.106V221.24H269.77L269.662 223.724Z" fill="url(#paint8_linear_43_17)"/>
<defs>
<linearGradient id="paint0_linear_43_17" x1="557.735" y1="42.936" x2="770.905" y2="306.554" gradientUnits="userSpaceOnUse">
<stop stop-color="#5EF0AA"/>
<stop offset="1" stop-color="#5E85EA"/>
</linearGradient>
<linearGradient id="paint1_linear_43_17" x1="51.9972" y1="3.59837" x2="69.2353" y2="74.3341" gradientUnits="userSpaceOnUse">
<stop stop-color="#5EF0AA"/>
<stop offset="1" stop-color="#5E85EA"/>
</linearGradient>
<linearGradient id="paint2_linear_43_17" x1="261.339" y1="105.598" x2="275.742" y2="177.656" gradientUnits="userSpaceOnUse">
<stop stop-color="#5EF0AA"/>
<stop offset="1" stop-color="#5E85EA"/>
</linearGradient>
<linearGradient id="paint3_linear_43_17" x1="359.162" y1="58.3717" x2="367.319" y2="106.375" gradientUnits="userSpaceOnUse">
<stop stop-color="#5EF0AA"/>
<stop offset="1" stop-color="#5E85EA"/>
</linearGradient>
<linearGradient id="paint4_linear_43_17" x1="384.676" y1="177.372" x2="394.502" y2="224.722" gradientUnits="userSpaceOnUse">
<stop stop-color="#5EF0AA"/>
<stop offset="1" stop-color="#5E85EA"/>
</linearGradient>
<linearGradient id="paint5_linear_43_17" x1="882.82" y1="173.189" x2="900.974" y2="234.209" gradientUnits="userSpaceOnUse">
<stop stop-color="#5EF0AA"/>
<stop offset="1" stop-color="#5E85EA"/>
</linearGradient>
<linearGradient id="paint6_linear_43_17" x1="911.403" y1="96.5984" x2="917.736" y2="170.996" gradientUnits="userSpaceOnUse">
<stop stop-color="#5EF0AA"/>
<stop offset="1" stop-color="#5E85EA"/>
</linearGradient>
<linearGradient id="paint7_linear_43_17" x1="1028.01" y1="205.007" x2="1044.37" y2="285.118" gradientUnits="userSpaceOnUse">
<stop stop-color="#5EF0AA"/>
<stop offset="1" stop-color="#5E85EA"/>
</linearGradient>
<linearGradient id="paint8_linear_43_17" x1="-5.88219" y1="204.598" x2="3.29822" y2="278.393" gradientUnits="userSpaceOnUse">
<stop stop-color="#5EF0AA"/>
<stop offset="1" stop-color="#5E85EA"/>
</linearGradient>
</defs>
</svg>
